<svg xmlns="http://www.w3.org/2000/svg" width="610" height="485" xmlns:xlink="http://www.w3.org/1999/xlink"><defs><path id="a" d="M159 0h720v542H159z"/></defs><g fill="none" fill-rule="evenodd" transform="matrix(-1 0 0 1 769 -19)" opacity=".3"><mask id="b" fill="#fff"><use xlink:href="#a"/></mask><path stroke="#0047BA" d="M497.8407 406.9102h135.07965v-96.08978H497.8407zM364.46018 213.88028h134.2301v-96.94014h-134.2301zM229.38053 310.2597l134.67618.56072.40348-96.37804-134.67618-.5621zM362.7071 503h135.07964v-96.0898H362.7071zM632.92035 309.11972H768v-96.0898H632.92035zM363.61062 310.1745l134.60716 95.88536" mask="url(#b)"/><path stroke="#0047BA" d="M230.09897 213.88028L96 116.3579l133.89272.56235L230.90622 20l132.69345.55548 134.3462 96.32226 134.12493 96.1659M365.30973 116.94014L231.07966 20M.42478 144.57658l228.80435 165.29498M230.2301 115.23944l267.7057 195.9215M362.76106 406.13875l-134.3044-96.86124-.7023 95.5886L362.76106 503M498.88277 116.98008l135.9254.66968 132.75326 95.1756M497.58306 213.24863l134.79026 95.82207" mask="url(#b)"/></g></svg>
