<svg xmlns="http://www.w3.org/2000/svg" width="797" height="676"><g fill="none" fill-rule="evenodd"><path stroke="#FCFCFC" d="M320 456H161V343h159zM476 228H317V116l159-1zM636 342.340586L477.47491 343 477 229.661018 635.52509 229zM478 569H319V456h159zM318.882341 227.338709L161 343.336319M160 341H1V228h159z"/><path stroke="#FCFCFC" d="M635.154334 229l157.845664-114.684692-157.602886.661304L634.204125 1l-156.191239.65323967L160.304593 229M476 115L634 1M478 343L3 675M635 113L320.087206 342.976264M795.532686 114L796 225.783337 637.087475 341.185559l.826662 112.410611L479 569M318 116l-158.931981.787529L1 228"/><path stroke="#FFF" d="M478.310322 456.358908l158.587904-114.039121"/></g></svg>
