<svg xmlns="http://www.w3.org/2000/svg" width="561" height="332"><g fill="none" fill-rule="evenodd" stroke="#1E519F" stroke-width="3" opacity=".1"><path d="M375.366 133.209h91.819v-65.87h-91.819zM468.702 264.774h91.82v-65.87h-91.82zM96.549 133.209h91.82v-65.87h-91.82zM376.8814 329.986l-91.818-65.917 91.819-65.87 91.819 65.917zM559.816 199.0338l-91.819-65.917"/><path d="M466.15 67.4303l-91.819-65.589H284.45M468.7017 198.904l-93.336-65.695-94.245 64.366-92.751-64.366 91.819-69.252 95.177 69.252"/><path d="M188.3697 67.3385l96.08-65.497 91.819 68.409M189.3 263.445h91.82v-65.87H189.3zM186.7496 66.1012l-89.494-64.26M189.3004 197.5748L1.4994 71.6568V1.8418h95.756"/><path d="M95.4 133.1403v65.87l93.9 64.435M281.1207 197.5743l94.245-64.366v-65.87l90.784.092"/></g></svg>
