<svg xmlns="http://www.w3.org/2000/svg" width="320" height="115"><g fill="none" fill-rule="nonzero"><g fill="#231F20"><path d="M159.0303 1.74242V0H0v115h159.0303v-1.74242H1.74387V1.74242"/><path d="M65.47688 103.42586h-9.7613V80.88673c0-2.40454-.67663-4.20098-2.02813-5.40413-1.1527-1.00102-2.6036-1.49935-4.35705-1.49935-1.75172 0-3.17908.49833-4.28207 1.49935-1.3515 1.20315-2.0255 2.9996-2.0255 5.40413v22.53913h-9.76306v-55.1878h9.76305v20.57716c2.65417-2.7025 5.7818-3.6138 9.38812-3.6138 4.2036 0 7.43325 1.3016 9.6872 3.90217 2.25395 2.60317 3.37874 6.0549 3.37874 10.3552v23.96706zM75.40054 62.05644h9.7648v-9.27492h-9.7648M96.4944 103.86678h9.76217V66.53273H96.4944M138.6955 84.32044c0-3.69046-.37493-5.4538-1.12305-7.0455-1.00273-2.14492-2.85385-3.21825-5.55946-3.21825-2.70388 0-4.5297 1.04632-5.48186 3.1407-.7516 1.59607-1.1274 3.38118-1.1274 7.12304 0 3.7889.3505 6.0166 1.0533 7.56212.94865 2.1423 2.805 3.2139 5.55595 3.2139 2.7056 0 4.55672-1.0716 5.55945-3.2139.74812-1.59345 1.12305-3.822 1.12305-7.56212zm9.7648 19.10568h-9.53635v-3.2348c-2.50594 2.74954-5.73385 3.68348-9.6872 3.68348-4.05537 0-7.2632-1.17178-9.61395-3.52667-1.30093-1.2981-2.29144-3.13898-2.96894-5.5139-.67487-2.37493-1.01318-5.59928-1.01318-10.55038 0-3.95182.177-6.04796.52664-8.05262.55194-3.25136 1.70028-5.75 3.45548-7.50026 2.35074-2.35053 5.53068-3.52928 9.53548-3.52928 2.10485 0 3.8932.2936 5.37024.87904 1.4762.58633 2.86692 1.17962 4.16698 2.65807V48.23833h9.7648v55.1878z"/></g><g fill="#FFF"><path d="M159.6618 115V0h160v115h-160zm1.7391-1.74242H317.9227V1.74242H161.4009v111.51516z"/><path d="M172.20283 81.80333h2.31062V69.46436h-2.31062M180.60017 60.66668v-4.9877h-6.06867v4.9877h-2.32893v-12.3381h2.32893v5.20026h6.06867v-5.20026h2.31062v12.3381M190.40944 54.60392c.05406 2.02644 1.1466 4.194 4.05798 4.194 2.91052 0 4.00392-2.18412 4.03967-4.2123.03574-2.07958-1.12916-4.4066-4.03968-4.4066-2.9114 0-4.11117 2.34357-4.05798 4.4249m10.3917-.05315c-.03574 3.19125-1.9941 6.38163-6.33372 6.38163s-6.35117-3.12068-6.35117-6.3642c0-3.24353 2.08218-6.50447 6.35117-6.50447 4.25068 0 6.3686 3.26094 6.33373 6.48704M214.1918 48.29277h2.32806v12.35727h-1.44566v.01655l-6.49243-8.33663v8.32007h-2.32894V48.31106h1.88774l6.05123 7.65012M231.39376 51.32494c-.8292-.7928-2.06387-1.23364-3.1407-1.23364-2.64633 0-4.25156 2.0099-4.25156 4.54773 0 2.0273 1.18234 4.1243 4.25155 4.1243.97134 0 1.81712-.2117 2.78845-.98707V55.5904h-3.15815v-2.0796h5.29265v5.20027c-1.2181 1.3922-2.7527 2.22072-4.92295 2.22072-4.63956 0-6.5273-3.05012-6.5273-6.29277 0-3.47265 2.16937-6.68133 6.5273-6.68133 1.6593 0 3.31684.63424 4.58638 1.88705l-1.44567 1.4802zM239.53536 60.64943h2.30976V48.31045h-2.30976M258.3837 48.3812l-5.4862 5.9042 5.94485 6.22307v.14114h-2.87477l-5.1697-5.46424v5.46425h-2.32894V48.31064h2.32894v5.2177l4.69275-5.2177h2.89308M188.38114 69.44684h2.32894v12.35728h-1.44654v.01655l-6.4933-8.33663v8.32008h-2.32807V69.46514h1.88687l6.0521 7.6501M198.56002 79.5645h2.54082c2.80588 0 3.91673-2.04387 3.8644-4.0529-.05318-1.92188-1.18233-3.84377-3.8644-3.84377h-2.54082v7.89666zm8.71586-4.03633c.05318 3.12068-1.85286 6.27534-6.17504 6.27534h-4.85145V69.46454h4.85144c4.23498 0 6.12272 3.0144 6.17504 6.06364zM223.20743 69.48256v7.06815c0 3.64864-2.24087 5.5174-5.34583 5.5174-2.9637 0-5.4871-1.79732-5.4871-5.5174v-7.06814h2.3115v7.06815c0 2.22073 1.27042 3.4021 3.19304 3.4021 1.9235 0 3.0169-1.2868 3.0169-3.4021v-7.06814h2.3115zM236.6688 72.44338c-.42464-.7048-1.5878-1.37477-2.92884-1.37477-1.72904 0-2.55825.7231-2.55825 1.63963 0 1.07507 1.26954 1.37477 2.75096 1.55075 2.57657.318 4.97613.9871 4.97613 3.9309 0 2.75043-2.43532 3.93092-5.18627 3.93092-2.5225 0-4.46344-.7745-5.3816-3.03094l1.94094-1.00538c.54758 1.35735 1.9758 1.95674 3.47553 1.95674 1.46485 0 2.84077-.51053 2.84077-1.85133 0-1.16307-1.2181-1.63876-2.8582-1.8156-2.5225-.2997-4.85145-.96967-4.85145-3.73664 0-2.53784 2.50507-3.57894 4.78082-3.5955 1.92348 0 3.91673.54626 4.85144 2.44986l-1.852.95136zM247.46578 71.57983h-3.91586v-2.1153h10.16153v2.1153h-3.91673V81.8035h-2.32894M261.0336 71.6334v3.94748h3.5453c1.48316 0 2.11793-.9871 2.11793-1.9733 0-.98708-.65308-1.97417-2.11793-1.97417h-3.5453zm8.6095 10.17054h-2.77014l-3.59935-4.1252h-2.24v4.1252h-2.32893V69.44667c1.95837 0 3.91673.0183 5.87423.0183 2.9114.01742 4.446 1.95587 4.446 4.08947 0 1.69102-.77603 3.4012-3.1224 3.87776l3.7406 4.21318v.15856zM274.17732 81.80333h2.31063V69.46436h-2.31063M287.78003 72.05543l-2.29406 5.25254h4.58725l-2.2932-5.25254zm3.2279 7.42185h-6.45668l-1.05852 2.32614h-2.52338l5.54027-12.33898h2.54082l5.53853 12.33898h-2.53995l-1.0411-2.32614zM301.3469 69.4647v10.18796h6.35116v2.15102h-8.6801V69.4647M174.33654 100.71865h2.54082c2.805 0 3.91673-2.04473 3.8644-4.05374-.05317-1.9219-1.18233-3.8429-3.8644-3.8429h-2.54082v7.89665zm8.71586-4.03632c.0532 3.1198-1.85286 6.27534-6.17504 6.27534h-4.85145V90.61782h4.85146c4.235 0 6.12272 3.01527 6.17504 6.0645zM197.36023 102.95793h-9.24425V90.61808h9.24425v2.25644h-6.93275v2.8384h6.686v2.1676h-6.686v2.78525h6.93275M210.3464 93.59745c-.42377-.70568-1.5878-1.37477-2.92883-1.37477-1.72905 0-2.55826.72224-2.55826 1.63875 0 1.07508 1.27042 1.37477 2.75184 1.55163 2.5757.31712 4.97438.98708 4.97438 3.9309 0 2.74956-2.43357 3.93005-5.1854 3.93005-2.5225 0-4.46343-.7745-5.38157-3.03094l1.9418-1.0045c.5467 1.35647 1.97493 1.95674 3.47465 1.95674 1.46486 0 2.8399-.5114 2.8399-1.85133 0-1.16394-1.21722-1.63875-2.85733-1.8156-2.5225-.2997-4.85145-.97054-4.85145-3.73664 0-2.5387 2.50507-3.57893 4.7817-3.59636 1.9226 0 3.91498.54712 4.85056 2.44985l-1.852.95223zM217.96806 102.9581h2.31063V90.61827h-2.31064M235.2042 93.63317c-.8292-.79367-2.06387-1.2345-3.1407-1.2345-2.64633 0-4.25156 2.00988-4.25156 4.54772 0 2.0273 1.18235 4.1243 4.25156 4.1243.97133 0 1.8171-.21082 2.78844-.98707v-2.185h-3.15814v-2.08046h5.29264v5.20027c-1.2181 1.3922-2.7527 2.22072-4.92294 2.22072-4.63957 0-6.5273-3.0501-6.5273-6.29277 0-3.47266 2.17024-6.68046 6.5273-6.68046 1.6593 0 3.31683.63424 4.58724 1.88617l-1.44654 1.48107zM250.57118 90.601h2.32893v12.35728h-1.44653v.01655l-6.4933-8.3375v8.32095h-2.32806V90.61843h1.88775l6.05123 7.65012"/></g></g></svg>
