<svg width="330" height="120" viewBox="0 0 330 120" xmlns="http://www.w3.org/2000/svg"><title>Group 14 Copy</title><g fill-rule="nonzero" fill="none"><path d="M67.523 107.923H57.457v-23.52c0-2.51-.698-4.383-2.092-5.64-1.19-1.043-2.685-1.563-4.493-1.563-1.806 0-3.278.52-4.416 1.564-1.394 1.256-2.09 3.13-2.09 5.64v23.52H34.3v-57.59h10.067v21.473c2.737-2.82 5.963-3.77 9.682-3.77 4.334 0 7.664 1.357 9.99 4.07 2.323 2.717 3.483 6.32 3.483 10.807v25.01zM77.757 64.755h10.07v-9.68h-10.07M99.51 108.383h10.067V69.425H99.51M143.03 87.987c0-3.85-.387-5.69-1.158-7.352-1.034-2.238-2.943-3.358-5.734-3.358-2.788 0-4.67 1.09-5.653 3.277-.775 1.665-1.162 3.528-1.162 7.433 0 3.953.36 6.278 1.086 7.89.977 2.236 2.89 3.354 5.728 3.354 2.79 0 4.7-1.117 5.734-3.353.77-1.662 1.158-3.988 1.158-7.89zm10.07 19.936h-9.835v-3.376c-2.584 2.87-5.913 3.844-9.99 3.844-4.182 0-7.49-1.222-9.914-3.68-1.34-1.353-2.362-3.274-3.06-5.753-.697-2.478-1.046-5.842-1.046-11.01 0-4.122.183-6.31.544-8.4.57-3.394 1.753-6 3.563-7.828 2.425-2.453 5.705-3.683 9.834-3.683 2.17 0 4.015.306 5.54.917 1.52.612 2.955 1.23 4.296 2.773v-21.39h10.07v57.586z" fill="#231F20"/><path d="M163.45 1.818V0H0v120h163.45v-1.818H1.8V1.818H163.45z" fill="#231F20"/><path d="M163.65 120V0h165.453v120H163.65zm1.8-1.818h161.854V1.818H165.45v116.364z" fill="#000"/><path fill="#000" d="M176.584 85.36h2.383V72.485h-2.383M185.244 63.304V58.1h-6.258v5.204h-2.402V50.43h2.402v5.426h6.258V50.43h2.383v12.874M195.36 56.978c.055 2.115 1.182 4.376 4.185 4.376 3 0 4.13-2.28 4.165-4.395.037-2.17-1.164-4.6-4.165-4.6-3.003 0-4.24 2.446-4.185 4.618m10.716-.055c-.037 3.33-2.056 6.66-6.53 6.66-4.477 0-6.55-3.258-6.55-6.642 0-3.384 2.146-6.787 6.55-6.787 4.382 0 6.566 3.403 6.53 6.77M219.885 50.392h2.4v12.895h-1.49v.017l-6.695-8.7v8.683h-2.402V50.412h1.947l6.24 7.982M237.625 53.556c-.855-.827-2.13-1.287-3.24-1.287-2.728 0-4.383 2.096-4.383 4.745 0 2.115 1.22 4.303 4.384 4.303 1.002 0 1.874-.22 2.876-1.03v-2.28h-3.257v-2.17h5.458v5.426c-1.256 1.452-2.84 2.317-5.077 2.317-4.785 0-6.73-3.182-6.73-6.565 0-3.624 2.236-6.972 6.73-6.972 1.71 0 3.42.662 4.73 1.97l-1.49 1.543zM246.02 63.286h2.383V50.41h-2.382M265.458 50.485l-5.657 6.16 6.13 6.494v.147h-2.963l-5.332-5.702v5.702h-2.4V50.41h2.4v5.446l4.84-5.445h2.983M193.268 72.466h2.402V85.36h-1.492v.018l-6.696-8.7v8.683h-2.4V72.486h1.945l6.24 7.983M203.765 83.024h2.62c2.894 0 4.04-2.133 3.985-4.23-.054-2.005-1.22-4.01-3.985-4.01h-2.62v8.24zm8.988-4.212c.055 3.256-1.91 6.548-6.368 6.548h-5.003V72.485h5.003c4.368 0 6.314 3.145 6.368 6.327zM229.183 72.504v7.375c0 3.806-2.31 5.756-5.513 5.756-3.057 0-5.66-1.875-5.66-5.757v-7.376h2.385v7.375c0 2.316 1.31 3.55 3.293 3.55s3.11-1.344 3.11-3.55v-7.376h2.385zM243.065 75.593c-.438-.735-1.638-1.434-3.02-1.434-1.784 0-2.64.753-2.64 1.71 0 1.12 1.31 1.434 2.838 1.618 2.657.33 5.132 1.03 5.132 4.1 0 2.87-2.512 4.103-5.35 4.103-2.6 0-4.602-.807-5.548-3.16l2-1.05c.566 1.416 2.04 2.04 3.585 2.04 1.51 0 2.93-.53 2.93-1.93 0-1.214-1.256-1.71-2.948-1.895-2.6-.313-5.003-1.012-5.003-3.9 0-2.647 2.585-3.734 4.932-3.75 1.983 0 4.04.57 5.003 2.555l-1.91.993zM254.2 74.692h-4.04v-2.207h10.48v2.207h-4.04V85.36h-2.4M268.19 74.748v4.12h3.657c1.53 0 2.184-1.03 2.184-2.06s-.672-2.06-2.183-2.06h-3.656zm8.88 10.613h-2.857l-3.712-4.304h-2.31v4.305h-2.4V72.467c2.02 0 4.038.02 6.057.02 3.002.017 4.585 2.04 4.585 4.266 0 1.765-.8 3.55-3.22 4.047l3.857 4.395v.166zM178.785 105.098h2.62c2.892 0 4.04-2.134 3.985-4.23-.055-2.006-1.22-4.01-3.985-4.01h-2.62v8.24zm8.988-4.212c.055 3.255-1.91 6.548-6.368 6.548h-5.003V94.558h5.003c4.367 0 6.314 3.146 6.368 6.328zM202.528 107.434h-9.533V94.558h9.533v2.355h-7.15v2.96h6.895v2.263h-6.895v2.907h7.15M215.92 97.667c-.437-.736-1.638-1.435-3.02-1.435-1.784 0-2.64.754-2.64 1.71 0 1.122 1.31 1.435 2.84 1.62 2.655.33 5.13 1.03 5.13 4.1 0 2.87-2.51 4.102-5.35 4.102-2.6 0-4.602-.808-5.548-3.163l2.002-1.047c.564 1.416 2.037 2.042 3.583 2.042 1.51 0 2.93-.534 2.93-1.932 0-1.214-1.256-1.71-2.948-1.894-2.602-.314-5.004-1.014-5.004-3.9 0-2.65 2.584-3.735 4.93-3.753 1.984 0 4.04.57 5.004 2.556l-1.91.994zM223.78 107.435h2.382V94.558h-2.382M241.554 97.704c-.855-.828-2.128-1.288-3.24-1.288-2.728 0-4.383 2.097-4.383 4.745 0 2.117 1.22 4.305 4.385 4.305 1.002 0 1.874-.22 2.876-1.03v-2.28h-3.256v-2.17h5.458v5.426c-1.256 1.453-2.838 2.318-5.077 2.318-4.784 0-6.73-3.183-6.73-6.567 0-3.622 2.237-6.97 6.73-6.97 1.712 0 3.42.662 4.73 1.97l-1.49 1.544zM257.402 94.54h2.4v12.895h-1.49v.017l-6.697-8.7v8.683h-2.4V94.558h1.946l6.242 7.983M281.745 84.65h2.383V71.88h-2.383M295.773 74.562l-2.366 5.435h4.73l-2.364-5.435zm3.33 7.68h-6.66l-1.09 2.407h-2.603l5.713-12.77h2.62l5.712 12.77h-2.62l-1.073-2.408zM309.764 71.88v10.543h6.55v2.226h-8.952V71.88"/></g></svg>
