<svg xmlns="http://www.w3.org/2000/svg" width="38" height="18" viewBox="0 0 38 18"><title>  Combined Shape</title><desc>  Created with Sketch.</desc><g fill="none"><g fill="#231F20"><path d="M11.7 18L8.1 18 8.1 10.6C8.1 9.9 7.9 9.3 7.4 8.9 7 8.6 6.5 8.4 5.8 8.4 5.2 8.4 4.7 8.6 4.3 8.9 3.8 9.3 3.5 9.9 3.5 10.6L3.5 18 0 18 0 0 3.5 0 3.5 6.7C4.5 5.8 5.6 5.5 7 5.5 8.5 5.5 9.6 6 10.5 6.8 11.3 7.7 11.7 8.8 11.7 10.2L11.7 18ZM14.6 5L14.6 1 18.5 1 18.5 5 14.6 5ZM20.5 18L20.5 5 24.4 5 24.4 18 20.5 18ZM38 17.9L34.6 17.9 34.6 16.8C33.7 17.7 32.6 18 31.2 18 29.7 18 28.6 17.6 27.7 16.9 27.3 16.4 26.9 15.8 26.7 15.1 26.4 14.3 26.3 13.3 26.3 11.7 26.3 10.4 26.4 9.7 26.5 9.1 26.7 8 27.1 7.2 27.7 6.6 28.6 5.9 29.7 5.5 31.1 5.5 31.9 5.5 32.5 5.6 33 5.8 33.6 6 34.1 6.2 34.5 6.6L34.5 0 38 0 38 17.9ZM34.5 11.7C34.5 10.5 34.4 9.9 34.1 9.4 33.8 8.7 33.1 8.4 32.1 8.4 31.2 8.4 30.5 8.7 30.2 9.4 29.9 9.9 29.8 10.5 29.8 11.7 29.8 12.9 29.9 13.6 30.2 14.1 30.5 14.8 31.2 15.2 32.1 15.2 33.1 15.2 33.8 14.8 34.1 14.1 34.4 13.6 34.5 12.9 34.5 11.7Z"/></g></g></svg>
