<svg xmlns="http://www.w3.org/2000/svg" width="299" height="89" viewBox="0 0 299 89"><title>  Rectangle 3</title><desc>  Created with Sketch.</desc><g style="fill:none;stroke-width:1;stroke:none"><g transform="translate(-200 -177)translate(211 180)"><g transform="translate(0 12)" fill="#231F20"><path d="M35 61L24.4 61 24.4 36.1C24.4 33.4 23.7 31.4 22.2 30.1 20.9 29 19.4 28.5 17.5 28.5 15.6 28.5 14 29 12.8 30.1 11.3 31.4 10.6 33.4 10.6 36.1L10.6 61 0 61 0 0 10.6 0 10.6 22.7C13.5 19.8 16.9 18.7 20.8 18.7 25.4 18.7 28.9 20.2 31.3 23.1 33.8 25.9 35 29.8 35 34.5L35 61Z"/><polygon points="50 21 66 21 66 6 50 6"/><polygon points="72 57 88 57 88 17 72 17"/><path d="M117.6 39.6C117.6 35.5 117.2 33.6 116.4 31.8 115.3 29.5 113.3 28.3 110.5 28.3 107.6 28.3 105.6 29.5 104.6 31.8 103.8 33.5 103.4 35.5 103.4 39.6 103.4 43.7 103.8 46.2 104.5 47.9 105.5 50.2 107.5 51.4 110.5 51.4 113.3 51.4 115.3 50.2 116.4 47.9 117.2 46.1 117.6 43.7 117.6 39.6L117.6 39.6ZM128 60.5L117.8 60.5 117.8 57C115.2 60 111.7 61 107.5 61 103.2 61 99.8 59.7 97.2 57.1 95.9 55.7 94.8 53.7 94.1 51.1 93.4 48.5 93 44.9 93 39.5 93 35.2 93.2 32.9 93.6 30.7 94.2 27.1 95.4 24.4 97.2 22.5 99.8 19.9 103.1 18.6 107.4 18.6 109.7 18.6 111.6 18.9 113.1 19.6 114.7 20.2 116.2 20.9 117.6 22.5L117.6 0 128 0 128 60.5Z"/></g><text font-family="Lato-Medium, Lato" font-size="22" line-spacing="28" letter-spacing="1.15499997" style="fill:#000;font-weight:400"><tspan x="148" y="22">  HONGIK </tspan><tspan x="148" y="50">  INDUSTRIAL </tspan><tspan x="148" y="78">  DESIGN</tspan></text></g><rect x="7" width="299" height="89"/></g></svg>
