<svg xmlns="http://www.w3.org/2000/svg" width="42" height="21"><g fill="#231F20" fill-rule="evenodd"><path d="M12.0924 20.819H8.5752v-8.332c0-.889-.2438-1.553-.7307-1.998-.4154-.37-.9382-.5542-1.57-.5542-.631 0-1.1454.1843-1.543.5543-.4868.445-.7297 1.109-.7297 1.998v8.332H.484V.4175h3.5178v7.6068c.9564-.999 2.0833-1.336 3.3827-1.336 1.5146 0 2.6783.4812 3.4905 1.4426.812.9623 1.2174 2.2383 1.2174 3.828v8.86zM15.668 5.5258h3.5185V2.0972H15.668M23.2685 20.982h3.5175V7.1805h-3.5175M38.4742 13.7562c0-1.3642-.135-2.016-.4046-2.6045-.3613-.793-1.0283-1.1897-2.0032-1.1897-.9742 0-1.632.3868-1.9752 1.161-.2708.59-.4062 1.25-.4062 2.6332 0 1.4007.1263 2.2242.3795 2.7955.3418.792 1.0107 1.188 2.002 1.188.9748 0 1.6418-.396 2.003-1.188.2696-.589.4047-1.413.4047-2.7955zm3.5185 7.0628h-3.436v-1.1958c-.903 1.0164-2.066 1.3617-3.4906 1.3617-1.461 0-2.617-.4333-3.464-1.3038-.4687-.48-.8256-1.1604-1.0697-2.0383-.2432-.878-.365-2.07-.365-3.9003 0-1.461.0637-2.2358.1897-2.9768.1988-1.202.6126-2.1257 1.245-2.7728.847-.869 1.9928-1.3046 3.4358-1.3046.7584 0 1.4028.1085 1.935.325.532.2167 1.033.436 1.5014.9825V.4178h3.5185V20.819z"/></g></svg>
